<?xml version="1.0" encoding="iso-8859-1"?>
<!-- Generator: Adobe Illustrator 18.1.1, SVG Export Plug-In . SVG Version: 6.00 Build 0)  -->
<svg version="1.1" id="_x31_0" xmlns="http://www.w3.org/2000/svg" xmlns:xlink="http://www.w3.org/1999/xlink" x="0px" y="0px"
	 viewBox="0 0 512 512" style="enable-background:new 0 0 512 512;" xml:space="preserve">
<g>
	<path style="fill:#2BB673;" d="M195.285,95.605c10.596,4.242,19.636,8.416,25.247,21.74c5.611,13.325,7.714,20.76,4.909,20.76
		c-2.805,0-13.325-1.403-21.74,5.61c-8.416,7.013-10.451,14.137-13.915,17.111c-3.464,2.974-23.303,22.962-32.045,22.351
		c-7.339-13.234-32.102-22.016-37.721-34.495c-5.619-12.48-7.849-15.448-7.849-15.448s17.439-34.025,4.621-39.669
		c-5.261-3.324-8.936,22.377-8.936,22.377s-23.026-20.338-33.231-6.101c-6.862,9.575,8.06,33.257,17.798,36.505
		c4.679,0.453,6.589,4.231,6.589,4.231s16.324,39.002,24.039,51.625s24.606,23.373,39.654,17.297
		c15.048-6.076,39.18-17.382,39.18-17.382s-10.918,17.878-17.82,36.553c-6.902,18.675-13.204,72.481,46.346,99.708
		c-1.463,9.695-1.463,22.318,1.342,27.227c2.805,4.909,17.656,29.824,20.36,34.276c2.704,4.452,2.783,12.01,2.783,12.01
		s10.52,35.298,10.754,40.441c0.234,5.143,1.403,8.65-4.675,9.351c-6.077,0.701-14.027,4.208-19.871,2.104
		c-5.843-2.104-30.624-7.947-37.169-7.013c-6.544,0.934-11.922,5.376-10.52,5.376s11.688-0.936,14.727,0.701
		c3.039,1.637,10.052,5.376,10.052,5.376s-19.168-2.337-24.311-0.233c-5.143,2.104-14.026,7.947-11.455,7.947
		c2.571,0,19.404-1.637,23.377-0.701c3.974,0.936-10.054,3.739-14.494,4.909c-4.441,1.17-11.921,6.077-8.648,5.61
		c3.272-0.467,5.845-0.701,10.52-1.87s11.221-3.508,24.311-0.935c13.09,2.572,44.416,12.389,59.611,0
		c9.584-2.571,14.493-11.221,15.194-12.389c0.701-1.168,8.183-24.311,5.143-46.052c-3.039-21.74-1.168-58.675-0.467-59.611
		c0.701-0.936,2.572-11.922,0.701-13.325c10.987-1.17,13.325,0.701,13.325,0.701s7.246,30.156,18.467,39.273
		c-2.805,14.727-3.741,18-3.507,22.207c0.234,4.208,5.61,33.43,5.845,40.443c0.234,7.013,3.915,18.417,2.659,24.988
		c-1.256,6.571,2.25,15.453,13.004,18.96c10.754,3.507,29.456,1.403,39.507,0.467c10.051-0.935,28.521,4.676,38.572,8.65
		c10.051,3.974,18.234,4.675,18.234,4.675s1.868-5.142-6.079-8.181c-7.947-3.039-20.103-8.651-22.207-9.585
		c-2.104-0.934,9.513-0.729,16.597,0.469c7.084,1.197,10.988-0.703,8.884-2.572c-2.104-1.87-21.508-9.818-22.91-10.285
		c-1.403-0.467,19.404-2.338,21.273-3.039c1.87-0.701-0.467-0.934-4.208-2.571c-3.741-1.637-30.857-6.78-44.182-6.546
		c-13.325,0.234-21.973-0.467-22.442-6.779c-0.469-6.312,1.168-9.817,2.571-12.389c1.403-2.572,9.584-37.872,4.675-53.767
		c9.351-20.571,10.989-30.622,9.82-37.402c-1.17-6.78-2.338-12.391-0.936-11.455c1.403,0.935,5.61,6.31,7.714,5.376
		c2.104-0.934,11.455-3.507,12.624-10.285c1.168-6.779,4.442-14.726,3.039-20.805c-1.403-6.079-2.337-28.052-2.805-32.26
		c-0.468-4.208,2.337-20.105,2.337-20.105s7.247-39.74,2.338-46.519c1.168-12.623,0.467-17.065,0.467-17.065
		s-11.219-57.271-15.661-68.96c-4.442-11.689-5.845-16.831-8.65-20.338c-2.805-3.507-7.012-10.051-7.48-11.221
		c-0.468-1.17-10.052-20.104-12.858-25.247c-2.805-5.143-6.779-14.963-7.48-18.702c-0.701-3.739-8.181-22.209-14.026-25.247
		c-5.845-3.038-7.247-4.208-7.247-4.208s-10.519-16.363-12.623-21.506c-2.104-5.143-5.609-7.482-10.285-5.143
		s-10.988,9.117-12.858,10.754c-1.87,1.637-10.752,2.102-14.493,2.571c-3.741,0.468-17.298,3.039-19.871,0
		c-2.572-3.04-7.95-14.259-15.196-14.493c-7.246-0.234-10.518,4.208-12.856,10.285c-2.338,6.078-3.038,8.183-4.909,9.351
		c-1.871,1.168-15.43,14.025-23.611,21.973c-8.181,7.948-21.505,19.404-26.882,25.715c-5.378,6.312-10.051,9.35-4.909,15.194
		C183.597,92.8,195.285,95.605,195.285,95.605z"/>
	<path style="fill:#B7B8B8;" d="M77.116,107.527c0,0-11.922-32.61-10.87-39.974c1.052-7.364,4.208-4.208,8.065-4.208
		c3.857,0,23.143,0.701,25.247,5.61c2.104,4.909,8.766,34.364,9.468,38.572c0.701,4.208,2.222,8.766-1.168,8.416
		c-3.39-0.351-0.714-1.041-3.805-3.15C100.96,110.683,89.74,101.216,77.116,107.527z"/>
	<path style="fill:#FFFFFF;" d="M199.143,81.861c6.897,2.289,19.595,24.925,24.935,45.867c5.339,20.942-0.822,30.555-4.946,40.578
		c-4.124,10.024-22.443,38.337-32.728,64.52c-10.285,26.182-15.083,76.447,37.342,101.341c33.669,9.961,40.362,6.275,49.147,6.914
		c8.785,0.64,34.521,15.996,36.666,8.105c2.145-7.891,1.866-12.989,1.866-12.989s32.071-41.656,32.071-72.514
		s-8.416-91.635-25.247-127.168c-16.831-35.534-23.295-54.843-27.117-53.299c-3.822,1.544-38.472,6.092-53.365-0.014
		C222.873,77.096,199.143,81.861,199.143,81.861z"/>
	<g>
		<path style="fill:#231815;" d="M309.822,78.411c-5.976,2.342-18.243,6.319-23.783,7.43c-2.752,0.57-7.646,1.919-12.507,2.433
			c-4.843,0.586-9.552,0.427-11.537-0.178c-1.993-0.553-8.384-1.14-14.249-2.112c-5.864-0.937-11.247-1.735-11.25-1.7
			c0,0.018-3.757-0.73-8.155-1.103c-2.196-0.178-4.552-0.219-6.646-0.053c-2.079,0.17-3.934,0.507-5.15,0.573
			c-2.422,0.21-5.668,0.225-9.006,0.007l-9.666-0.764c-2.886-0.16-5.449,0.659-7.805,1.159c-2.328,0.511-4.509,0.625-6.135-0.708
			c-0.859-0.651-0.831-1.125-1.092-1.629c-0.203-0.488-0.342-1.003-0.227-1.571c0.112-0.588,0.477-1.188,1.244-1.738
			c0.77-0.548,1.841-1.023,3.03-1.494c4.824-1.819,8.832-1.616,11.574,0.029c2.767,1.644,5.064,2.189,9.57,2.668
			c1.127,0.112,3.067,0.149,5.37-0.075c1.155-0.107,2.393-0.282,3.658-0.529l2.014-0.431c0.836-0.177,1.679-0.332,2.53-0.445
			c6.869-0.948,13.508-0.127,16.73,0.407c3.268,0.578,8.129,1.819,12.126,2.722c4.001,0.925,7.216,1.494,7.216,1.494
			s3.065,0.33,6.106,0.425c3.055,0.079,4.548-0.912,7.517-1.093c2.934-0.17,6.984,1.26,9.062-0.18
			c2.107-1.414,5.247-2.053,9.854-3.108c4.589-1.082,6.632,0.453,10.904-1.773c4.186-2.233,8.168-2.572,10.65-3.745
			c0.597-0.288,0.916-0.199,1.129,0.105c0.227,0.292,0.512,0.708,0.485,1.289C313.327,75.892,312.067,77.584,309.822,78.411z"/>
		<path style="fill:#231815;" d="M232.491,21.028c-10.678,9.996-61.916,48.534-59.857,61.376
			c2.056,12.841,11.814,7.332,18.16,14.956c4.1,0.542,5.536-5.591-0.599-7.028c-6.136-1.434-13.77-7.449-12.829-11.129
			c0.942-3.678,18.822-21.234,21.355-23.213c2.54-1.976,4.183-1.922,5.074-3.956c0.893-2.033,3.801-2.764,4.663-3.971
			c0.864-1.208,21.39-21.768,25.159-23.705C237.392,22.419,234.617,19.036,232.491,21.028z"/>
		<path style="fill:#231815;" d="M205.639,95.307c6.155,4.865,21.549,21.499,15.904,28.156c-1.538,0.253-4.104-0.512-4.104-3.072
			c0-2.561-6.161-18.172-12.828-22.268C197.941,94.027,205.639,95.307,205.639,95.307z"/>
		<path style="fill:#231815;" d="M202.379,74.026c-2.474-1.671-0.62-5.012,1.545-3.55c2.161,1.46,2.161,4.805,1.236,5.43
			C204.232,76.534,202.379,74.026,202.379,74.026z"/>
		<path style="fill:#231815;" d="M223.035,74.943c-2.185-2.953,8.647-4.386,7.72-2.507c-0.926,1.879-1.85,2.922-4.013,2.715
			C224.58,74.943,223.343,75.36,223.035,74.943z"/>
		<path style="fill:#231815;" d="M288.12,21.288c-1.318,3.516,2.196,5.713,5.276,3.516c3.078-2.196,6.154-5.278,10.989-10.988
			c4.834-5.713,10.11-9.672,14.504-7.914c4.395,1.76,10.11,19.339,15.385,26.376c5.273,7.032,7.469,0.441,4.834-1.757
			c-2.638-2.198-3.959-2.638-6.594-7.034c-2.635-4.397-7.472-11.428-8.789-16.704c-1.318-5.273-8.351-6.591-12.747-3.956
			c-4.396,2.638-14.069,13.625-16.264,15.385C292.518,19.97,288.12,21.288,288.12,21.288z"/>
		<path style="fill:#231815;" d="M262.976,17.984c-3.294-2.471-4.943-11.943-10.709-14.004c-5.766-2.06-10.296,2.061-13.181,8.651
			c-2.883,6.588-1.236,9.059-4.12,10.295c-2.883,1.237-6.176,1.652-4.53-1.645c1.646-3.297,5.355-4.946,7.414-11.948
			c2.059-7.001,11.121-11.53,15.652-8.236c4.53,3.294,9.884,11.124,13.18,14.006c3.297,2.882,23.48-0.003,25.951,0.411
			c2.471,0.412,7.827,0.412,1.649,1.648c-6.18,1.235-14.419,2.47-20.184,2.059c-5.767-0.411-9.887,1.236-9.887,1.236
			C260.094,20.455,262.976,17.984,262.976,17.984z"/>
		<path style="fill:#231815;" d="M266.273,35.284c8.65-1.646,15.649-0.41,11.532,2.061c-4.117,2.471-8.235,4.943-6.588,6.179
			c1.645,1.235,2.468,1.646-0.826,2.882c-3.294,1.235-6.591,4.942-8.65,5.356c-2.059,0.412-4.12,2.059-6.179,3.706
			c-2.059,1.649-3.297,3.296-9.885,5.767c-6.59,2.471-6.177,1.236-2.882-2.059c3.294-3.294,3.707-2.882,6.178-5.767
			c2.472-2.883,2.47-3.297,4.117-5.355c1.649-2.059,4.12,0,4.12-3.707c0-3.708-2.059-3.708,1.649-4.943
			C262.565,38.168,266.273,35.284,266.273,35.284z"/>
		<path style="fill:#231815;" d="M232.495,33.225c4.53-0.412,14.417,0.823,11.121,2.059c-3.294,1.235-4.53,2.061-5.765,3.297
			c-1.236,1.236,1.236,2.882-1.648,4.117c-2.885,1.237-4.531,2.472-4.531,2.472l-0.825,2.883c0,0,0.825,0.412-2.882,2.472
			c-3.708,2.057-2.882,2.468-3.708,4.529c-0.826,2.062,0,4.944-2.471,4.944c-2.472,0-3.294,3.294-2.472,0
			c0.823-3.296-0.824-7.825,1.646-9.473c2.471-1.649,4.943-2.885,5.356-4.12c0.414-1.236,2.885-2.062,2.885-3.708
			c0-1.645,0.825-4.53,1.236-5.765C230.848,35.697,232.495,33.225,232.495,33.225z"/>
		<path style="fill:#231815;" d="M243.616,23.752c-2.057-1.236-2.468-3.708,1.649-4.943c4.118-1.236,4.118-1.236,4.118-1.236
			s0.824,2.885,0.412,4.943c-0.412,2.059,0,2.056-2.471,2.882C244.853,26.224,243.616,23.752,243.616,23.752z"/>
		<path style="fill:#231815;" d="M307.462,24.163c-4.117,0-4.941-3.708-2.882-4.944c2.059-1.235,3.294-3.297,4.531-2.471
			c1.235,0.825,1.233,1.238,3.294,3.296c2.061,2.06,2.061,2.47,0.825,4.119C311.995,25.811,307.462,24.163,307.462,24.163z"/>
		<path style="fill:#231815;" d="M310.344,67.861c7.003-3.342,9.062-3.063,12.77,0.836c3.708,3.898-1.648,8.073-6.179,8.631
			c-4.53,0.557-4.12,3.063,0.823,3.341c4.943,0.279,3.997,0.251,5.768-3.341c1.236-2.505,4.532-4.735,2.471-7.519
			c-2.06-2.782-3.709-3.62-5.768-5.013c-2.059-1.392-1.233-1.112-6.588,0.559c-5.356,1.672-17.302,6.683-24.305,8.353
			c-7.002,1.673-11.947,3.342-22.243,2.508c-10.296-0.836-11.532-2.23-16.887-2.23c-5.356,0-4.943,0.837-2.472,1.115
			c2.472,0.279,12.36,0.557,16.478,1.949c4.117,1.393,11.12,0.836,14.004,0c2.883-0.834,13.182-2.785,15.653-3.619
			C296.34,72.595,310.344,67.861,310.344,67.861z"/>
		<path style="fill:#231815;" d="M346.59,33.393c3.369,3.36,7.284,9.324,9.824,15.53c2.6,6.195,4.313,12.396,5.28,16.292
			c0.952,3.855,1.823,7.216,2.837,9.766c1.049,2.622,2.445,4.589,4.083,6.739c1.65,2.103,4.072,5.504,5.543,9.507
			c1.372,3.645,3.36,7.487,4.665,11.573c0.649,2.046,0.852,3.68,0.706,4.878c-0.063,0.574-0.225,1.077-0.393,1.378
			c-0.177,0.289-0.336,0.389-0.469,0.355c-0.27-0.055-0.406-0.678-0.675-1.393l-1.01-2.516c-1.511-3.771-5.191-10.169-6.179-13.447
			c-0.28-0.763-0.849-2.331-1.829-4.139c-0.956-1.828-2.463-3.785-4.021-5.882c-1.564-2.094-2.85-4.456-3.642-6.427
			c-0.807-1.994-1.257-3.497-1.495-4.127c-0.907-2.559-5.302-14.501-6.873-18.083c-0.736-1.827-1.482-4.371-2.67-6.804
			c-1.163-2.43-2.813-4.738-4.899-5.946c-2.082-1.186-2.905-1.808-3.202-2.593c-0.299-0.774-0.066-1.646-0.128-3.003
			C341.841,32.417,342.889,29.769,346.59,33.393z"/>
		<path style="fill:#231815;" d="M227.789,140.18c0.7,7.802-1.441,17.241-5.913,26.204c-1.112,2.249-2.366,4.48-3.746,6.679
			c-1.333,2.176-3.004,4.419-4.393,6.347c-2.79,3.984-5.531,8.311-8.095,12.647c-10.298,17.416-18.231,36.001-22.262,47.846
			c-3.997,11.687-4.431,22.281-3.524,31.535c0.967,9.287,3.322,17.379,6.706,24.948c1.693,3.787,4.059,8.136,7.216,12.548
			c3.085,4.5,7.117,8.477,12.329,11.855c2.575,1.714,5.372,3.353,8.216,5.102l4.238,2.678c1.341,0.846,2.737,1.663,4.156,2.449
			c5.691,3.139,11.669,5.91,17.474,8.245c11.677,4.634,16.048,5.22,15.955,5.944c-0.027,0.669-4.838,0.767-11.04-1.009
			c-6.182-1.693-14.725-4.928-22.629-8.951c-3.997-1.951-7.673-4.409-10.981-6.379c-3.338-1.996-6.339-3.806-8.554-5.39
			c-2.176-1.556-6.86-4.932-11-10.655c-4.161-5.573-8.246-12.932-11.055-20.709c-2.853-7.764-4.431-15.871-4.967-22.517
			c-0.567-6.657-0.2-11.822-0.024-13.977c0.17-2.161,0.56-6.361,1.69-11.544c1.153-5.206,3.133-11.204,5.363-17.264
			c4.449-12.122,10.3-24.244,13.39-29.912c3.056-5.695,7.665-12.97,12.806-20.247c2.689-3.581,5.083-7.131,6.894-10.976
			c1.815-3.787,3.048-7.664,3.534-11.217c0.887-7.108,0.492-10.333,0.827-12.726c0.197-2.382,0.948-3.896,1.156-7.142
			c0.13-3.218,0.079-5.809,1.255-5.784c0.555,0.033,1.458,0.726,2.493,2.502C226.31,133.078,227.432,135.993,227.789,140.18z"/>
		<path style="fill:#231815;" d="M387.63,115.191c3.79,4.899,6.799,12.937,8.839,20.823c2.075,7.891,3.446,15.716,4.453,20.41
			l5.283,22.815c1.438,6.531,4.345,17.959,4.817,28.243c0.218,5.149-0.488,7.113-1.004,7.069c-0.552-0.036-1.057-1.967-1.415-4.453
			c-0.622-5.005-2.357-13.933-3.092-18.002c-0.32-2.041-1.453-8.355-2.88-14.51c-1.398-6.16-3.037-12.158-3.483-13.753
			c-0.383-1.592-2.042-6.104-3.335-10.991l-3.23-12.238c-0.608-2.4-1.159-5.663-2.134-8.906c-0.97-3.231-2.402-6.471-4.504-8.507
			c-2.085-2.023-2.94-2.898-3.215-3.841c-0.297-0.915,0-1.827-0.122-3.32c-0.119-1.492-0.142-2.897,0.589-3.423
			C383.853,112.102,385.618,112.53,387.63,115.191z"/>
		<path style="fill:#231815;" d="M356.389,166.638c-0.855,3.909-1.26,9.939-0.096,15.807c0.536,2.932,1.385,5.812,2.297,8.389
			c0.456,1.297,0.922,2.475,1.4,3.685c0.426,1.163,0.804,2.09,1.178,2.979c3.113,6.968,6.587,11.196,9.558,15.615
			c1.518,2.213,3.75,5.189,5.865,8.773c2.104,3.563,4.045,7.873,4.643,12.28c0.535,4.43-0.415,6.086-0.878,6.001
			c-0.556-0.063-0.975-1.681-1.408-3.656c-0.403-1.997-1.219-4.693-2.345-7.142c-1.099-2.463-2.422-4.709-3.201-6.141
			c-0.736-1.453-3.393-5.783-6.341-9.898c-2.93-4.118-5.787-8.262-6.483-9.42c-0.704-1.12-2.978-4.35-4.678-8.075
			c-1.848-3.582-3.326-7.662-3.808-9.663c-0.523-2-0.77-4.767-0.944-7.586c-0.19-2.828-0.307-5.701-1.001-8.229
			c-1.289-5.145,0.164-5.074,2.405-6.593C354.931,162.255,357.35,162.482,356.389,166.638z"/>
		<path style="fill:#231815;" d="M410.03,219.408c4.942,10.711-2.469,41.189-4.117,69.2c-1.649,28.012,8.235,27.186-0.826,51.079
			c-8.237,11.533-14.003,16.474-18.123,10.709c-4.12-5.767-8.237-4.117-8.237-10.709c0-6.593,2.47-2.164,1.852-3.4
			c-0.619-1.236,1.235-1.236,0.618,1.235c-0.618,2.472-1.545,4.326,0,5.561c1.544,1.235,4.942,2.472,7.105,5.251
			c2.163,2.781,3.708,3.4,5.252,0.619c1.545-2.781,2.781-3.09,3.708-3.09c0.927,0,4.324-2.78,4.324-5.251
			c0-2.471,4.635-11.739,4.635-16.992c0-5.251-6.179-33.982-4.326-37.072c1.853-3.089,3.706-6.179,3.09-7.106
			c-0.619-0.926-0.927-3.089-0.927-3.089s0.308-1.236,0.308-2.471c0-1.236,1.235-7.106,1.235-10.813
			c0-3.708,2.781-20.082,3.09-22.243c0.31-2.163,1.236-11.122-0.618-14.829c-1.853-3.708-1.235-4.943-1.853-6.797
			C405.6,217.348,410.03,219.408,410.03,219.408z"/>
		<path style="fill:#231815;" d="M378.307,248.934c0.03,2.726-0.047,5.013,0.067,7.546c0.127,2.522,0.412,5.319,1.533,8.888
			c2.442,6.913,2.119,7.844,3.031,12.218c0.434,2.179,0.551,3.053,0.64,4.159c0.055,1.118,0.152,2.42-0.008,5.501
			c-0.414,6.219,0.025-0.018,0.112,4.448c0.023,4.513,1.382,6.382,1.385,6.35c0.678-1.6,1.456-3.081,2.23-4.593
			c-0.248-3.293-0.44-6.66-1.014-10.007c0,0-0.092-2.296-0.441-5.036c-0.341-2.739-0.955-5.887-1.415-7.649
			c-0.43-1.752-0.948-4.034-1.289-6.039c-0.33-2.025-0.475-3.978-0.634-5.271c-0.373-2.546-1.837-7.81-1.818-12.338
			C380.686,242.611,378.27,243.489,378.307,248.934z"/>
		<path style="fill:#231815;" d="M381.659,293.448c-1.419,1.646-2.563,3.002-3.712,4.593c-1.125,1.608-2.283,3.401-3.22,6.211
			c-0.863,3.009-0.855,4.557-1.061,5.944c-0.14,1.359-0.285,2.471-0.067,4.289c0.241,1.812,0.437,2.518,0.581,3.423
			c0.184,0.9,0.274,2.009,1.085,4.527c0.901,2.501,1.027,2.477,0.957,2.279c-0.016-0.214-0.135-0.585,0.912,1.004
			c2.281,3.178,4.507,3.016,4.415,3.035c-0.463-1.385-0.666-2.752-0.704-4.061c-1.598-1.671-2.893-3.746-3.853-5.983
			c0.012-0.003-0.41-1.622-0.582-3.587c-0.203-1.964-0.074-4.228,0.074-5.486c0.118-1.248,0.552-2.853,1.235-4.009
			c0.723-1.296,1.597-2.529,2.097-3.379c0.979-1.67,2.211-5.803,4.542-8.194c1.122-1.132,1.337-1.851,0.826-2.259
			C384.652,291.401,383.082,291.785,381.659,293.448z"/>
		<path style="fill:#231815;" d="M381.196,319.345c-0.304,1.324-1.004,2.215-0.382,3.982c0.677,1.697,0.145,1.941,0.341,3.049
			c0.27,1.103,0.127,0.82,0.171,2.62c0.255,1.893-0.039,0,0.589,1.152c0.777,1.229,2.151,0.675,2.085,0.652
			c0.199-0.885,0.623-1.637,1.137-2.283c-0.456-0.292-0.915-0.797-1.308-1.367c-0.044-0.004,0.094-1.908,0.063-2.626
			c-0.089-0.741,0.485-1.838,0.522-2.341c0.016-0.485-1.074-1.708-0.804-2.594C383.904,318.84,381.63,317.866,381.196,319.345z"/>
		<path style="fill:#231815;" d="M386.606,339.039c0.611,0.123,0.749,0.794,1.834,0.681c1.145-0.048,0.951,0.56,1.463,0.9
			c0.517,0.363,0.421,0.29,0.778,1.305c0.362,1.027,0-0.004,0.521,0.397c0.529,0.407,1.487-0.372,1.487-0.372l0.912-2.315
			l-1.555-0.424c0.015,0-0.775-1.305-1.298-1.614c-0.478-0.307-1.019-1.271-1.501-1.474c-0.483-0.219-1.802,0.566-2.574,0.505
			C385.789,336.58,386.167,338.979,386.606,339.039z"/>
		<path style="fill:#231815;" d="M391.861,341.072c0.83-0.478,1.649-0.483,1.9-1.653c0.174-1.14,0.681-0.855,1.042-1.342
			c0.341-0.473,0.275-0.381,1.222-0.694c0.936-0.295,0-0.003,0.318-0.454c0.304-0.438-0.535-1.304-0.535-1.304
			c-0.738-0.342-1.504-0.655-2.266-0.959l-0.23,1.378c0,0-1.129,0.563-1.378,0.874c-0.257,0.341-1.09,0.399-1.252,0.548
			c-0.132,0.145,0.251,1.4-0.071,1.564C390.377,339.087,390.729,341.576,391.861,341.072z"/>
		<path style="fill:#231815;" d="M307.998,339.725c0.674,6.583,0.186,11.007,1.933,19.899c1.212,4.472,2.178,6.779,2.907,8.792
			c0.763,1.982,1.374,3.591,2.79,6.046c1.444,2.432,2.105,3.348,2.834,4.552c0.751,1.192,1.602,2.664,3.801,5.917
			c4.428,6.438-0.003,0.018,3.497,4.316c3.49,4.256,5.72,5.269,5.735,5.273c-0.473-1.941-1.007-3.886-1.552-5.825
			c-2.72-3.039-5.465-5.995-8.018-9.099c0.012-0.007-1.546-2.272-3.135-5.105c-1.622-2.824-3.104-6.265-3.848-8.26
			c-0.777-1.967-1.423-4.621-1.737-7.035c-0.222-2.489-0.299-4.965-0.469-6.602c-0.33-3.26-1.986-9.791-2.582-15.318
			C309.467,331.745,307.294,333.203,307.998,339.725z"/>
		<path style="fill:#231815;" d="M384.668,347.941c1.627,3.145,2.887,8.353,2.638,13.306c-0.162,4.983-1.425,9.54-2.601,12.365
			c-2.404,5.211-3.538,8.742-4.753,12.337c-0.299,0.877-0.615,1.929-0.963,3.094l-0.543,1.83c-0.082,0.275-0.266,0.957-0.564,1.34
			c-0.285,0.47-0.455,0.733-0.715,1.089c-1.975,2.667-4.452,4.498-6.366,6.262l0.875-1.648c-0.032,0.277-0.162,0.675-0.234,0.823
			l-0.225,0.414l-0.311,0.423c-0.53,0.589-0.794,0.755-1.092,0.992c-0.28,0.208-0.521,0.367-0.733,0.497l-0.535,0.294l-0.082,0.032
			c-0.063-0.014,0.175,0.184-0.572-0.592c-0.374-0.41-0.77-0.786-0.992-0.936l-0.208-0.111l0.015-0.252
			c-0.019-0.225-0.125-0.69-0.237-1.1c-0.057-0.171-0.132-0.415-0.214-0.71c-0.085-0.281-0.018-0.07-0.031-0.127l0.101,0.045
			l0.26,0.082l0.323,0.289c0.119,0.244-0.023,0.635-0.253,0.992c-0.016,0.123-0.074-0.156,0.051,0.505
			c0.044,0.292-0.082,0.267,0.057,0.294l0.411,0.314l0.14-0.352c0.158-0.269,0.364-0.547,0.596-0.824
			c0.293-0.384,0.838-0.921,0.949-1.359l0.015-0.058l0.045-0.057c1.866-2.277,4.628-4.916,5.601-6.323
			c0.164-0.203,0.427-0.566,0.623-0.882l0.627-1.748l1.647-4.812l2.524-7.642c0.26-0.922,1.101-3.485,1.564-6.164
			c0.514-2.704,0.71-5.524,0.786-6.862c0.101-1.334,0.458-3.125,0.373-4.983c-0.077-1.841-0.623-3.75-1.977-4.88
			c-2.727-2.109-1.596-2.316-0.582-4.46C381.007,346.625,382.827,344.515,384.668,347.941z"/>
		<path style="fill:#231815;" d="M229.141,336.654c0.694,4.135,0.714,10.161,1.025,15.651c0.173,2.75,0.496,5.369,1.082,7.554
			c0.533,2.066,1.537,4.197,2.141,5.819c2.645,6.499,5.261,10.61,7.443,14.959l1.872,3.664c0.72,1.112,1.777,2.512,2.859,3.854
			c2.186,2.739,4.821,5.735,6.738,9.135c1.912,3.442,1.722,5.221,1.246,5.32c-0.541,0.153-1.531-1.019-2.596-2.49
			c-2.034-3.049-6.565-7.705-8.346-10.178c-0.441-0.614-1.359-1.866-2.397-3.538c-0.638-0.964-0.912-1.919-1.433-2.878
			c-0.468-0.974-0.988-1.979-1.514-2.975c-2.129-3.978-4.402-7.861-4.962-8.925c-0.573-1.05-2.416-4.002-4.048-7.261
			c-1.819-3.374-2.538-7.345-2.753-9.15c-0.486-3.694,0.709-9.788-1.485-13.733c-2.23-3.836-1.052-3.794,0.497-5.888
			C225.945,333.529,228.34,332.125,229.141,336.654z"/>
		<path style="fill:#231815;" d="M271.622,342.162c3.494,2.568,5.994,4.234,11.488,5.305c5.493,0.845,6.034,1.453,9.435,2.055
			c3.405,0.504,2.698,0.449,7.44,1.533c4.779,0.974,0,0.019,3.445,0.256c3.468,0.192,4.868-1.057,4.858-1.044
			c-1.144-0.801-2.245-1.629-3.316-2.474c-2.453,0.092-4.921,0.088-7.391,0.008c-0.017,0.045-6.578-1.452-9.142-2.09
			c-2.627-0.529-6.257-2.207-8.032-2.909c-1.753-0.649-5.912-1.112-8.275-3.339c-1.105-1.066-1.889-1.288-2.255-0.725
			C269.551,339.249,269.845,340.796,271.622,342.162z"/>
		<path style="fill:#231815;" d="M325.419,400.808c-1.253,3.343-2.229,6.244-2.696,9.595c-0.469,3.342-0.322,7.083,0.69,11.707
			l1.218,5.576c0.288,1.449,0.404,2.646,0.544,3.742c0.258,2.181,0.386,3.939,0.882,6.824c0.503,2.882,0.718,4.03,0.908,5.482
			l0.314,2.652l0.222,1.967l0.14,1.229l0.041,0.362l0.134,0.577l0.153,0.647c0.655,3.72,0.485,3.809,0.56,3.498
			c0.01-0.275,0.111-0.884,0.511,1.909c0.619,5.651,2.12,8.039,2.168,7.988c0.434-2.119,1.103-4.057,1.675-6.104
			c-0.334-2.137-0.707-4.304-1.296-6.457c-0.148-0.54-0.312-1.077-0.496-1.612l-0.292-0.799l-0.095-0.251l-0.089-0.358l-0.744-3.123
			l-2.152-16.137c-0.283-2.371-0.809-5.269-1.031-7.96c-0.274-2.711-0.34-5.219-0.359-6.857c-0.041-1.644-0.254-4.085,0.031-6.868
			c0.26-2.775,1.033-5.862,2.148-8.517c1.125-2.645,1.105-3.941,0.368-3.798C328.17,395.873,326.706,397.466,325.419,400.808z"/>
		<path style="fill:#231815;" d="M374.194,405.074c0.64,6.264,0.116,10.436-0.174,18.852c-0.205,4.227-0.662,6.58-1.105,8.513
			l-1.533,6.031c-1.293,5.13-0.979,4.133-3.661,11.062c-2.809,6.879,0.019,0.005-1.618,5.039c-1.683,5.017-1.326,7.414-1.312,7.42
			l4.033-4.246c1.085-3.791,2.093-7.607,2.979-11.447c0.062,0.032,3.401-10.224,4.059-14.53c0.825-4.231,2.171-10.648,2.286-13.951
			c0.212-3.301-0.979-9.854-1.872-15.178c-0.43-2.691-1.293-3.611-1.779-3.092C373.976,400.073,373.817,401.97,374.194,405.074z"/>
		<path style="fill:#231815;" d="M249.883,403.376c0.63,6.056,1.175,10.366,4.701,17.624l0.627,1.281l0.234,0.478l0.196,0.567
			l0.681,2.056c0.393,1.234,0.671,2.226,0.907,3.134c0.474,1.812,0.778,3.287,1.538,5.664c0.763,2.378,1.074,3.324,1.393,4.53
			l0.54,2.213l0.392,1.647l0.023,0.234l0.029,0.514l0.066,1.19c0.273,6.932,0.007-0.017,0.614,4.913
			c0.548,4.934,2.278,6.935,2.466,6.966c-0.093-1.168,0.288-1.923,0.509-2.835l0.836-2.605l-0.968-5.389l-0.521-2.723
			c-0.041-0.367-0.268-1.175-0.437-1.496l-0.503-1.275c-0.01-0.003-2.544-9.625-3.649-13.422c-0.285-0.948-0.564-2.027-0.834-3.156
			c-0.158-0.627-0.214-1.003-0.445-1.864l-0.593-1.738l-1.811-5.695c-0.966-2.679-3.567-8.017-3.745-12.98
			c-0.116-2.43-0.671-3.423-1.285-3.052C250.266,398.525,249.61,400.311,249.883,403.376z"/>
		<path style="fill:#231815;" d="M294.861,362.657c-0.555,7.153-1.172,13.111-1.583,19.705c-0.381,6.588-0.644,13.841,0.181,23.459
			c1.035,9.589,1.481,14.863,1.56,19.35c0.099,4.463,0.051,8.032-0.089,13.958c-0.196,5.923-0.455,8.277-0.841,11.2
			c-0.207,1.459-0.467,3.061-0.938,5.283c-0.49,2.211-1.137,5.086-2.549,8.848c-1.451,3.741-2.56,5.341-3.012,6.109
			c-0.479,0.75-0.393,0.644-0.219,0.427c0.168-0.218,0.429-0.544,0.294-0.225c-0.152,0.299-0.611,1.363-2.38,3.4
			c-3.631,4.009-7.472,4.842-9.909,5.265c-2.494,0.345-3.72,0.347-3.712,0.386c3.646,1.344,8.046,1.809,12.265,0.115
			c4.126-2.66,6.729-6.809,8.449-10.967c1.739-4.204,2.722-8.592,3.393-12.977c0.015,0.007,1.231-5.945,1.708-13.176
			c0.551-7.227,0.449-15.67,0.179-20.469l-0.893-16.424c-0.184-5.614-0.048-10.933,0.015-14.486l0.057-14.857
			c0.044-2.983,0.127-6.119,0.255-9.257l0.228-4.685c-0.033-0.308,0.396-1.286,0.563-1.989c0.215-0.764,0.418-1.53,0.562-2.307
			c0.637-3.128-0.096-5.583-0.907-6.662c-0.823-1.103-1.326-1.153-1.308-0.627c0,0.529,0.434,1.682,0.416,3.527
			c-0.011,0.925-0.14,2.027-0.448,3.304c-0.152,0.64-0.355,1.32-0.588,2.046l-0.381,1.124l-0.258,0.718
			C294.872,362.103,294.892,362.489,294.861,362.657z"/>
		<path style="fill:#231815;" d="M331.65,482.444c1.837,7.086,6.48,12.215,12.485,15.098c6.043,2.904,13.384,4.06,22.711,3.309
			c18.406-1.952,20.671-2.115,32.011-1.793c5.641,0.33,7.851,0.823,10.584,1.448c2.698,0.678,5.906,1.751,13.299,4.839
			c14.92,6.227-0.066,0.059,10.855,4.007c5.539,1.9,9.71,2.474,12.363,2.612c2.664,0.121,3.857-0.107,3.854-0.095
			c-3.797-1.183-7.36-2.745-10.745-4.558c-8.006-2.101-15.816-5.482-24.013-7.832c0.034,0.022-5.539-2.093-12.559-2.856
			c-7.009-0.878-15.2-0.463-19.797-0.079c-4.605,0.371-10.355,0.814-15.741,1.007c-5.338,0.171-10.315-0.386-13.515-1.029
			c-3.174-0.623-8.098-1.583-12.463-4.716c-2.161-1.555-4.089-3.679-5.424-6.202c-1.349-2.513-2.1-5.371-2.36-8.136
			c-0.389-5.542-0.377-7.898-1.149-7.098c-0.33,0.403-0.77,1.604-1.011,3.634C330.798,476.019,330.731,478.909,331.65,482.444z"/>
		<path style="fill:#231815;" d="M267.378,484.86c-4.675,1.194-8.914,0.953-13.426,0.549c-2.274-0.23-4.646-0.552-7.275-0.983
			l-8.984-1.6c-13.451-1.352-15.042-2.589-23.603-3.343c-4.287-0.33-6.058-0.275-8.173-0.362c-2.144,0.014-4.682-0.423-10.902,0.171
			c-3.116,0.378-4.665,0.866-5.372,1.062c-0.715,0.205-0.592,0.19-0.37,0.152c0.227-0.036,0.57-0.089,0.314,0.044l-0.881,0.378
			l-0.934,0.364c-0.425,0.17-0.937,0.406-1.46,0.693c-2.074,1.184-3.357,2.264-4.51,2.93c-1.122,0.686-1.989,1.004-2.723,1.142
			c-1.477,0.226-2.348-0.056-2.335-0.003c0.936,0.925,2.301,1.596,3.876,1.631c1.566,0.066,3.156-0.37,4.609-0.805
			c1.337-0.896,2.549-1.824,3.712-2.342c1.378-0.584,2.782-1.119,4.216-1.509c2.881-0.807,5.906-1.189,8.976-1.384
			c-0.029,0.01,4.25-0.015,9.237,0.352c5.002,0.386,10.8,1.422,14.141,1.964c3.339,0.529,7.503,1.421,11.541,2.1l0.757,0.129
			c-0.067-0.008,0.27,0.084,0.497,0.149l1.438,0.401l2.752,0.704c1.761,0.422,3.36,0.748,4.643,0.956
			c2.574,0.412,6.512,0.671,10.895,0.434c4.364-0.247,9.229-0.963,13.332-2.891c2.048-0.982,3.198-2.197,3.698-2.989
			c0.481-0.834,0.419-1.208-0.019-1.175C274.146,481.851,272,483.615,267.378,484.86z"/>
		<path style="fill:#231815;" d="M217.087,471.781c-2.192,0-4.019-0.149-6.03-0.225c-1.004-0.036-2.051-0.055-3.216-0.026
			c-1.167,0.026-2.578,0.125-4.07,0.478c-3.001,0.723-4.589,1.289-5.96,1.66c-1.359,0.399-2.474,0.684-4.175,1.473
			c-3.341,1.615-2.693,1.359-7.458,3.167c-4.682,1.6,0,0.055-3.161,1.489c-3.094,1.264-4.224,2.419-4.256,2.479
			c1.257,0.625,2.694,1.077,4.186,1.392c2.633-1.146,4.923-2.638,7.194-4.064c0.018-0.038,6.672-2.904,9.317-3.567
			c1.323-0.426,3.037-0.689,4.649-0.751c1.644-0.073,3.057,0.082,4.213,0.086c2.192,0,6.575-1.197,10.226-1.197
			C222.199,474.175,221.471,471.781,217.087,471.781z"/>
		<path style="fill:#231815;" d="M227.63,465.443c-5.093-0.321-8.462-1.347-15.414-1.172c-6.942,0.279-7.801-0.259-12.188-0.025
			l-4.175,0.408c-1.111,0.136-2.451,0.111-5.615,0.827c-3.167,0.848-3.152,1.053-2.908,0.959c0.258-0.018,0.712-0.171-1.364,0.996
			c-2.066,1.249-3.094,2.735-3.557,3.715c-0.464,1.01-0.445,1.562-0.459,1.555c1.53-0.779,3.092-1.197,4.591-1.327
			c2.123-1.86,4.923-3.111,7.858-3.942c0,0,2.066-0.308,4.58-0.393c2.511-0.111,5.454-0.01,7.144,0.012
			c3.379,0.003,8.428,0.944,10.976,1.156c2.549,0.184,7.783-0.492,12.114-0.285C233.586,468.017,232.654,465.69,227.63,465.443z"/>
		<path style="fill:#231815;" d="M249.846,458.953c-3.019,0.748-5.667,0.753-8.536,0.608c-2.885-0.166-6.029-0.552-10.315-1.092
			c-8.602-1.177-9.529-2.171-14.94-3.19l-5.194-0.875c-1.381-0.206-3.008-0.638-7.009-0.889c-4.028-0.123-4.057,0.044-3.75,0.038
			c0.299,0.066,0.878,0.066-1.975,0.526c-2.857,0.529-4.701,1.523-5.775,2.27c-1.082,0.753-1.441,1.286-1.441,1.286
			c2.023-0.075,3.985,0.072,5.845,0.421c3.611-1.145,7.502-1.531,11.421-1.433c0,0,2.656,0.334,5.802,1.027
			c3.153,0.67,6.812,1.657,8.938,2.133c4.221,0.985,10.598,2.955,14.016,3.275c1.685,0.189,4.276,0.126,7.117-0.289
			c2.844-0.401,5.882-1.21,8.551-2.137c2.692-0.957,3.37-2.111,2.737-2.43C254.685,457.829,252.837,458.185,249.846,458.953z"/>
		<path style="fill:#231815;" d="M390.553,485.852c6.14,1.634,10.1,3.171,18.328,4.954c8.206,1.907,8.979,2.931,13.811,4.867
			c2.396,1.03,3.335,1.482,4.474,2.116c1.135,0.637,2.487,1.444,5.484,3.495c5.85,4.279,0.026-0.046,4.386,2.727
			c4.274,2.87,6.576,3.333,6.601,3.304c-0.884-1.697-1.815-3.41-2.834-5.083c-3.348-2.104-6.835-3.963-10.407-5.593
			c-0.003,0.01-2.293-1.388-5.179-2.809c-2.878-1.441-6.34-2.908-8.365-3.602c-4.027-1.437-10.013-3.787-13.097-4.613
			c-3.082-0.849-9.533-1.264-14.63-2.62C384.035,481.616,384.403,484.218,390.553,485.852z"/>
		<path style="fill:#231815;" d="M385.375,477.991c7.688,0.608,12.766,1.308,22.913,1.951c5.071,0.378,7.868,1.001,10.154,1.616
			c2.281,0.647,4.064,1.28,7.003,2.344c2.926,1.103,4.038,1.681,5.394,2.436c1.318,0.804,2.983,1.729,6.217,4.547
			c3.128,2.916,2.979,3.041,2.853,2.741c-0.178-0.248-0.478-0.827,1.66,1.352c4.079,4.494,6.121,6.239,6.201,6.188
			c-0.422-2.208-1.018-4.431-1.818-6.654c-3.272-3.632-7.165-6.666-11.406-8.947c0,0-2.727-1.853-6.333-3.478
			c-3.586-1.657-8.001-3.005-10.554-3.553c-5.09-1.201-12.776-2.681-16.644-2.991c-3.876-0.37-11.646,0.371-18.013-0.136
			C376.651,474.827,377.659,477.378,385.375,477.991z"/>
		<path style="fill:#231815;" d="M377.22,468.274c7.556,1.345,12.556,2.218,22.628,2.389c10.057,0.14,11.259,0.833,17.464,1.482
			c3.097,0.355,4.329,0.537,5.85,0.836c1.508,0.331,3.372,0.69,7.434,1.981c3.994,1.389,3.863,1.541,3.648,1.329
			c-0.266-0.148-0.71-0.567,1.961,0.552c2.631,1.184,4.034,2.218,4.835,3.022c0.777,0.816,1.09,1.374,1.115,1.36
			c0.558-1.944-0.483-4.48-2.042-6.349c-4.484-2.474-9.162-3.186-13.766-3.874c0,0-3.1-0.714-6.85-1.314
			c-3.752-0.612-8.142-1.145-10.654-1.348c-5.026-0.411-12.497-1.512-16.229-1.824c-3.708-0.337-11.344,0.34-17.334-1.123
			c-2.926-0.748-4.186-0.837-4.041-0.082C371.394,466.057,373.412,467.55,377.22,468.274z"/>
		<path style="fill:#231815;" d="M416.583,491.387c2.296,0.296,3.717,1.129,6.882,1.068c3.175-0.048,3.456,0.621,5.386,0.956
			c1.938,0.33,1.535,0.277,4.18,1.296c2.67,0.995-0.003,0.006,1.967,0.282c1.986,0.263,2.909-0.871,2.901-0.864
			c-0.577-0.868-1.129-1.72-1.663-2.598c-1.419,0.029-2.852,0.01-4.289-0.019c0,0-3.728-1.238-5.269-1.52
			c-1.534-0.278-3.75-1.275-4.926-1.466c-1.172-0.199-3.699,0.614-5.654,0.393C414.119,488.703,414.312,491.119,416.583,491.387z"/>
		<path style="fill:#231815;" d="M195.405,149.031c3.591-4.579,7.487-7.084,10.44-7.899c2.976-0.831,4.719-0.405,5.298-0.089
			c1.159,0.819-1.663,0.979-5.653,2.652c-4.09,1.757-7.242,5.365-9.835,8.881c-2.607,3.563-4.741,7.253-7.139,10.311
			c-4.75,6.331-11.611,10.74-18.686,13.596l-0.574,0.233l-0.142,0.052l-0.269,0.153c-0.39,0.23-0.794,0.459-1.216,0.677
			c-0.836,0.451-1.723,0.875-2.626,1.29c-1.803,0.829-3.659,1.586-5.279,2.223l0.123-0.089c-0.767,0.514-1.289,0.438-1.834,0.545
			l-1.426,0.133l-0.548,0.108l0.152,0.268l0.611,0.357c0.27,0.169,0.241,0.256-0.218,0.21l-0.44-0.085l-0.323-0.118l-0.27-0.208
			l-0.143-0.397l0.166-0.406c0.474-0.383,0.638-0.326,0.951-0.446l0.923-0.23c0.66-0.111,1.41-0.451,1.651-0.482l-0.288,0.036
			l0.402-0.219c3.541-1.96,6.021-3.394,8.789-5.402c3.072-1.59,6.143-3.145,10.321-6.082c2.227-1.597,4.472-3.541,6.393-5.705
			c1.908-2.168,3.612-4.563,5.127-6.672C192.84,151.965,195.388,149.012,195.405,149.031z"/>
		<path style="fill:#231815;" d="M200.615,200.394c-1.822,2.024-4.874,4.591-8.127,6.502c-3.244,1.95-6.617,3.367-8.846,3.949
			c-4.453,1.156-7.253,2.1-10.096,3.028c-2.827,0.918-7.669,3.024-12.111,3.902c-4.464,0.842-3.668-1.559-1.652-2.652
			c2.03-1.112,5.727-2.726,7.46-3.21c0.874-0.225,3.572-0.973,6.182-1.838c2.613-0.852,5.128-1.839,5.795-2.115
			c1.392-0.46,7.229-4.001,8.958-5.167c1.767-1,5.665-1.938,5.961-5.216c0.155-3.167,1.029-2.045,3.401-1.422
			C199.87,196.758,202.591,198.128,200.615,200.394z"/>
		<path style="fill:#231815;" d="M149.842,184.321c0.314-2.008-0.015-6.136-2.052-8.681c-2.205-3.323-5.271-6.115-7.158-8.111
			c-3.823-3.941-6.995-6.079-9.988-8.454c-1.505-1.188-3.687-2.733-5.93-4.735c-2.23-2.001-4.5-4.557-5.964-7.382
			c-1.441-2.848-1.163-4.213-0.593-4.385c0.631-0.203,1.629,0.631,2.557,1.752c0.912,1.144,2.192,2.674,3.531,4.013
			c1.327,1.352,2.696,2.539,3.49,3.348c0.775,0.823,3.389,3.205,6.214,5.334l6.421,4.778c0.752,0.567,3.038,2.041,5.347,3.786
			c2.312,1.735,4.567,3.867,5.493,5.049c0.467,0.592,0.933,1.337,1.355,2.141c0.466,0.811,0.988,1.871,1.349,2.872
			c0.748,2.035,1.323,4.007,2.556,5.808c1.207,1.838,1.273,3.024,0.804,3.722c-0.464,0.697-1.456,1.027-2.743,1.492
			c-1.304,0.479-2.638,0.194-3.479-0.336C150.182,185.739,149.677,185.372,149.842,184.321z"/>
		<path style="fill:#231815;" d="M151.179,221.486c-2.607-0.138-5.923-0.393-9.602-1.314c-3.663-0.878-7.694-2.657-11.004-5.261
			c-3.326-2.593-5.862-5.761-7.806-8.669c-1.941-2.923-3.348-5.646-4.332-7.772c-3.82-8.366-6.743-13.733-9.54-19.2
			c-2.807-5.441-8.181-14.853-11.296-23.703c-2.972-8.909-0.06-7.261,2.004-3.145c2.1,4.137,5.945,11.544,7.57,14.959
			c0.77,1.727,3.281,7.038,5.969,12.165c2.67,5.135,5.43,10.129,6.164,11.462c0.759,1.305,2.964,5.153,5.446,8.865
			c2.475,3.757,5.519,7.146,7.095,8.562c1.514,1.485,3.548,3.512,6.202,4.839c2.631,1.345,5.783,1.902,8.414,1.175
			c5.195-1.568,4.998-0.292,7.212,2.011C155.876,218.643,156.807,221.661,151.179,221.486z"/>
		<path style="fill:#231815;" d="M100.893,147.87c-1.545-0.09-1.156-1.907-1.345-3.235c-0.162-1.374-0.57-2.146-2.299-1.178
			c-0.897,0.451-2.13,0.827-3.561,0.767c-1.429-0.056-3.052-0.592-4.528-1.479c-2.987-1.773-5.246-4.553-6.068-5.631
			c-0.84-1.096-3.05-4.164-5.265-8.298c-1.121-2.059-2.255-4.358-3.356-6.714l-0.822-1.77c-0.256-0.549-0.43-1.064-0.604-1.645
			c-0.342-1.137-0.538-2.271-0.548-3.343c-0.053-2.144,0.796-4.337,2.626-5.856c1.805-1.534,4.339-2.418,6.867-2.756
			c5.124-0.709,10.137,0.548,13.356,1.998c3.246,1.495,4.826,2.901,6.134,4.215c1.241,1.368,2.323,2.746,3.113,5.476
			c0.62,2.737,1.049,3.583,1.593,2.493c0.246-0.542,0.406-1.596,0.188-3.057c-0.212-1.452-0.893-3.325-2.322-5.064
			c-2.848-3.493-6.951-5.757-11.054-6.998c-4.12-1.245-8.332-1.512-11.855-0.945c-1.714,0.308-4.854,0.814-7.787,3.268
			c-1.429,1.226-2.641,3.082-3.074,5.213c-0.455,2.126-0.208,4.368,0.356,6.417c0.642,2.176,1.487,3.813,2.207,5.635
			c0.748,1.76,1.501,3.428,2.225,4.927c1.441,3,2.796,5.306,3.536,6.421c2.896,4.471,7.82,9.365,12.881,11.002
			c2.467,0.859,4.624,1.129,6.256,1.12C99.37,148.831,100.466,148.551,100.893,147.87z"/>
		<path style="fill:#231815;" d="M90.724,119.432c-2.115-1.66-4.472,0.408-6.15-0.551c-1.8-0.942-0.044-5.508,1.222-5.555
			c1.172-0.063,3.304-0.066,4.972,0.068c0.825,0.049,4.121,0.345,7.284,1.286c3.183,0.873,6.101,2.385,6.724,2.734
			c0.459,0.241,1.964,1.214,3.646,2.582c1.703,1.35,3.546,3.104,5.067,4.564l0.897,0.867l-0.204,1.299
			c-0.153,0.97-0.366,1.926-0.766,2.848c-0.401,0.944-0.946,1.663-1.327,2.15c-0.683,0.882-1.719,1.123-2.511,0.901
			c-0.811-0.214-1.39-0.831-1.675-1.488c-0.292-0.622-0.314-1.446-0.277-1.798c0.045-0.396,0.147-0.678,0.296-0.748
			c0.266-0.099,0.93-0.191,1.27-0.736c0.314-0.421,0.526-1.352,0.604-1.859l0.548,1.708l-0.244-0.235
			c-0.222-0.222-1.153-1.9-2.426-3.507c-1.257-1.605-2.878-3.107-3.686-3.233c-1.54-0.358-5.276-2.561-7.022-2.946
			c-0.848-0.243-2.318,0.257-3.563,0.815C92.149,119.152,91.101,119.736,90.724,119.432z"/>
		<path style="fill:#231815;" d="M95.214,126.197c2.301,0.256,5.097,0.57,7.92,1.405c2.819,0.811,5.617,2.177,7.768,3.908
			c0.69,0.54,1.259,1.09,1.742,1.592l0.686,0.71l-0.199,0.667c-0.316,1.052-0.978,2.068-1.885,2.503
			c-0.892,0.425-1.634,0.256-2.03,0.092c-0.816-0.38-0.845-0.716-0.529-0.582c0.307,0.092,0.875,0.005,1.375-0.383
			c0.512-0.412,0.689-1.047,0.76-2.09l0.315,0.89c-0.479-0.304-0.997-0.666-1.577-1.083c-3.061-2.23-6.042-3.015-7.746-3.224
			c-0.859-0.104-1.071-0.229-1.704-0.494c-0.631-0.241-1.685-0.696-4.301-0.905c-2.608-0.177-4.201-0.412-4.967-0.782
			c-0.767-0.356-0.681-0.808,0.096-1.008L95.214,126.197z"/>
		<path style="fill:#231815;" d="M113.33,99.835c-0.093-1.1-0.408-2.631,0.044-4.349c0.223-0.827,0.777-1.6,1.508-1.86
			c0.711-0.282,1.419-0.199,1.911-0.06c0.996,0.243,2.709,1.099,3.98,2.527c1.244,1.319,1.929,3.008,1.805,3.806
			c-0.04,0.786,0.223,3.033,0.099,5.168c-0.082,2.124-0.464,4.067-0.464,4.067c-0.004-0.006-0.341,1.34-0.931,2.826
			c-0.566,1.496-1.39,3.115-1.812,3.875c-0.819,1.548-2.393,3.953-3.137,5.971c-0.714,1.99,0.955,5.104-1.279,5.595
			c-2.227,0.438-2.496-1.181-3.008-3.548c-0.515-2.375-0.204-3.79,0.981-4.242c1.183-0.457,1.691-1.126,2.594-2.489
			c0.449-0.679,1.225-2.535,1.766-4.448c0.56-1.922,0.846-3.859,1.07-4.802c0.252-0.945,0.674-2.397,0.898-3.65
			c0.227-1.249,0.272-2.29,0.279-2.287c-0.001-0.016-0.047-0.711-0.337-1.448c-0.292-0.744-1.068-0.777-1.488-1.368l-0.192-0.553
			l0.1-0.447c0.047-0.304-0.089-0.623-0.295-0.34c-0.379,0.589-0.392,0.566-0.616,0.604c-0.082,0.026-0.381-0.282-0.671-0.374
			c-0.277-0.114-0.514,0.041-0.216,0.452c0.304,0.41,0.305,0.368,0.244,0.705c-0.041,0.512-0.123,1.149-0.041,1.634
			C116.316,101.811,113.537,101.57,113.33,99.835z"/>
		<path style="fill:#231815;" d="M320.983,37.345c9.061,1.648,15.649,11.537,11.532,15.655c-4.117,4.118-8.237,0-8.237-4.12
			c0-4.12-0.825-4.945-6.591-6.591C311.919,40.642,320.983,37.345,320.983,37.345z"/>
		<path style="fill:#231815;" d="M386.887,123.846c6.591,6.591,11.536,20.594,8.239,19.772c-3.297-0.823-4.945-2.469-13.182-1.646
			c-8.238,0.823-13.181,5.768-15.652,2.471c-2.471-3.297,3.294-8.24,7.414-9.062c4.12-0.823,7.414-2.471,7.414-4.943
			C381.121,127.966,386.887,123.846,386.887,123.846z"/>
		<path style="fill:#231815;" d="M395.949,155.151c-7.414,0.823-13.18-1.648-17.3,0.823c-4.12,2.472-7.413,9.064-0.823,9.064
			c6.588,0,6.591-4.12,9.885-4.943c3.296-0.823,3.293,2.472,9.061,0C402.541,157.624,395.949,155.151,395.949,155.151z"/>
		<path style="fill:#231815;" d="M393.478,169.98c-5.767-0.822-9.887,4.117-2.471,5.767
			C398.421,177.396,393.478,169.98,393.478,169.98z"/>
		<path style="fill:#231815;" d="M367.941,247.419c6.684-4.596,4.942-8.235,0-14.004c-4.943-5.768-9.064-7.413-9.064-2.471
			C358.878,235.887,357.155,254.833,367.941,247.419z"/>
		<path style="fill:#231815;" d="M370.412,269.662c5.765,0,9.885,9.885,2.471,11.534c-7.415,1.648-12.358-9.064-9.885-14.005
			C365.469,262.248,370.412,269.662,370.412,269.662z"/>
		<path style="fill:#231815;" d="M374.53,252.361c-7.087,0-5.767,4.943-0.823,9.064C378.65,265.545,378.647,252.361,374.53,252.361z
			"/>
		<path style="fill:#231815;" d="M362.172,296.025c-4.942-1.649-2.468-8.237,0.826-7.414
			C366.292,289.434,362.172,296.025,362.172,296.025z"/>
		<path style="fill:#231815;" d="M199.056,149.386c5.406-3.861,9.065-5.765,10.711,2.471c1.647,8.237,3.294,15.652-1.649,10.71
			c-4.942-4.943-4.942-4.943-4.942-4.943S193.287,153.506,199.056,149.386z"/>
		<path style="fill:#231815;" d="M194.113,160.095c2.471,3.294,9.885,8.24,4.12,9.064c-5.766,0.822-13.181-3.297-13.181-3.297
			l8.238-9.887L194.113,160.095z"/>
		<path style="fill:#231815;" d="M350.64,95.015c7.461,0,7.414,5.762,7.414,11.53c0,5.769-7.414,12.358-9.885,6.593
			c-2.472-5.767-0.003-6.593-3.297-9.063C341.577,101.603,344.875,95.015,350.64,95.015z"/>
		<path style="fill:#231815;" d="M352.287,70.299c3.569,5.353,10.711,9.887,3.297,10.709c-7.414,0.823-9.065,3.295-10.711-2.471
			C343.226,72.77,350.637,67.828,352.287,70.299z"/>
		<path style="fill:#231815;" d="M366.292,352.046c-9.065,4.028-9.062,4.943-16.478,5.765c-7.413,0.823-4.939,8.237,3.298,7.416
			c8.236-0.825,8.239,7.412,14.829,3.294c6.589-4.119,9.062-6.59,9.885-9.061C378.65,356.989,373.706,348.752,366.292,352.046z"/>
		<path style="fill:#231815;" d="M355.584,376.76c6.983-0.874,9.885,1.649,14.829,0c4.942-1.648,2.471,5.769-2.471,7.414
			c-4.943,1.646-4.123,1.646-10.711,1.646C350.64,385.821,348.995,377.586,355.584,376.76z"/>
		<path style="fill:#231815;" d="M233.656,350.398c15.655,2.846,16.478,7.416,21.421,6.591c4.942-0.826,1.645,3.296-4.12,4.942
			c-5.767,1.646-8.235,4.943-11.532,2.471C236.128,361.931,224.593,348.749,233.656,350.398z"/>
		<path style="fill:#231815;" d="M244.367,375.112c9.859,1.093,9.061-2.469,14.004-0.823c4.942,1.647-4.117,5.768-8.238,7.414
			C246.013,383.35,236.954,374.289,244.367,375.112z"/>
		<path style="fill:#231815;" d="M257.548,391.589c11.206,0,14.826-2.471,8.238,2.472
			C259.196,399.003,247.662,391.589,257.548,391.589z"/>
		<path style="fill:#231815;" d="M105.95,108.264c-0.693-7.784-5.904-33.771-10.126-38.341c-4.226-4.572-24.104-3.155-27.829-1.833
			c-3.72,1.322,10.193,39.314,10.193,39.314s1.236,5.923-2.844-2.315c-4.08-8.236-9.955-26.823-12.569-35.003
			c-2.611-8.18,4.043-9.385,8.443-9.212c4.397,0.174,28.733-2.535,30.644,4.882c1.908,7.417,8.502,31.007,9.865,38.473
			C113.092,111.697,106.643,116.051,105.95,108.264z"/>
		<path style="fill:#231815;" d="M82.444,76.311c-2.934-0.367-3.274-6.076,0-5.142C85.718,72.103,86.184,76.778,82.444,76.311z"/>
	</g>
</g>
</svg>
